<svg width="24" height="24" viewBox="0 0 24 24" fill="none" xmlns="http://www.w3.org/2000/svg">
<path d="M24 12C24 18.6274 18.6274 24 12 24C5.37258 24 0 18.6274 0 12C0 5.37258 5.37258 0 12 0C18.6274 0 24 5.37258 24 12Z" fill="#00071F"/>
<path d="M17.9565 15.0246C17.883 14.8903 17.6863 14.8101 17.3902 14.6487C17.0951 14.4872 15.6435 13.7082 15.3723 13.6009C15.102 13.4936 14.9053 13.4394 14.7076 13.7623C14.5108 14.0841 13.9445 14.8101 13.7726 15.0246C13.6007 15.2392 13.4279 15.2663 13.1328 15.1048C12.8377 14.9434 11.8858 14.6042 10.7582 13.5066C9.88085 12.6528 9.28769 11.5985 9.1158 11.2757C8.94392 10.9539 9.09792 10.7794 9.24497 10.619C9.3781 10.4749 9.54005 10.2431 9.68809 10.0545C9.83812 9.86817 9.88681 9.73381 9.98616 9.51819C10.0845 9.30365 10.0358 9.11512 9.96132 8.95368C9.88681 8.79331 9.29663 7.20812 9.05122 6.56343C8.81078 5.93607 8.56736 6.02059 8.38653 6.01084L7.8202 6C7.62348 6 7.30355 6.08018 7.0333 6.40307C6.76305 6.72596 6 7.50393 6 9.08912C6 10.6623 7.04215 12.1821 7.20169 12.4147L7.20519 12.4199C7.35323 12.6344 9.2867 15.8871 12.2485 17.2816C12.9529 17.6132 13.5034 17.8114 13.9316 17.9599C14.639 18.2048 15.2828 18.1701 15.7915 18.0877C16.3589 17.9956 17.5382 17.3087 17.7846 16.5567C18.031 15.8037 18.031 15.159 17.9565 15.0246Z" fill="white"/>
</svg>
